<?xml version="1.0" encoding="utf-8"?>
<!-- Generator: Adobe Illustrator 15.0.0, SVG Export Plug-In . SVG Version: 6.00 Build 0)  -->
<!DOCTYPE svg PUBLIC "-//W3C//DTD SVG 1.1//EN" "http://www.w3.org/Graphics/SVG/1.1/DTD/svg11.dtd">
<svg version="1.1" xmlns="http://www.w3.org/2000/svg" xmlns:xlink="http://www.w3.org/1999/xlink" x="0px" y="0px" width="168px"
	 height="168px" viewBox="0 0 168 168" enable-background="new 0 0 168 168" xml:space="preserve">
<g id="WHITE">
	<path fill="#FFFFFF" d="M89.205,36.665c-24.006,0-43.465,19.46-43.465,43.465s19.459,43.465,43.465,43.465
		c24.004,0,43.465-19.46,43.465-43.465S113.209,36.665,89.205,36.665z M89.205,108.005c-15.395,0-27.875-12.48-27.875-27.875
		c0-15.395,12.48-27.875,27.875-27.875s27.875,12.48,27.875,27.875C117.08,95.524,104.6,108.005,89.205,108.005z"/>
	<g>
		<path fill="#F1F2F2" d="M100.297,93.706l-4.453,3.844H83.727l-4.336-3.844V80.464l-1.43-1.312l1.43-1.336V64.597l4.336-3.867
			h12.117l4.453,3.891v5.672H93.5v-2.766h-7.312v10.289l1.43,1.336l-1.43,1.312v10.289H93.5v-2.977h6.797V93.706z"/>
	</g>
	<g id="XE4klF_1_">
		<g>
			<path fill-rule="evenodd" clip-rule="evenodd" fill="#969F3C" d="M95.484,84.884c0,0,2.194-2.628,1.395-4.313
				c-0.448,0.992-1.511,1.685-2.503,2.133c-3.864,1.054-4.44-5.354-1.68-6c1.214-0.173,1.815,0.265,2.4,0.72
				c-0.351-1.01-1.294-1.427-0.96-3.12c0.858-2.221,3.221-1.979,3.861-1.979c1.166-0.019,2.356,0.733,2.622,1.508
				c0.582,1.645-0.364,2.615-0.964,3.831c0.651-0.8,3.982-2.626,3.839,2.388c-0.148,1.319-1.171,2.823-2.469,3.125
				c-2.103,0.103-2.625-1.042-3.376-2.605c-0.349,2.268,1.334,4.313,1.334,4.313H95.484z"/>
		</g>
	</g>
	<g>
		<path fill="#808285" d="M55.992,82.214c0.404,0.035,0.729,0.165,0.975,0.389c0.245,0.231,0.393,0.525,0.442,0.882
			c0.036,0.323-0.007,0.603-0.132,0.84c-0.119,0.24-0.269,0.423-0.45,0.549c-0.06,0.039-0.117,0.074-0.172,0.107
			c-0.057,0.031-0.13,0.06-0.219,0.088c-0.166,0.051-0.491,0.111-0.975,0.178c-0.491,0.068-0.822,0.1-0.992,0.096
			c-0.171-0.008-0.312-0.035-0.423-0.082c-0.209-0.072-0.405-0.207-0.589-0.405c-0.185-0.194-0.301-0.452-0.35-0.773
			c-0.052-0.396,0.024-0.735,0.228-1.018c0.205-0.282,0.479-0.481,0.824-0.596l0.091,0.659c-0.163,0.075-0.296,0.187-0.397,0.336
			c-0.095,0.155-0.131,0.332-0.106,0.532c0.023,0.146,0.071,0.267,0.143,0.364c0.072,0.099,0.157,0.175,0.254,0.229
			c0.103,0.068,0.227,0.105,0.374,0.111c0.155,0.009,0.441-0.015,0.858-0.073s0.696-0.112,0.84-0.163
			c0.144-0.047,0.255-0.117,0.335-0.21c0.078-0.078,0.137-0.174,0.177-0.289c0.049-0.114,0.063-0.244,0.043-0.391
			c-0.048-0.349-0.277-0.583-0.688-0.703L55.992,82.214z"/>
		<path fill="#808285" d="M54.93,77.97c-0.495-0.038-0.826-0.078-0.992-0.12c-0.165-0.043-0.297-0.1-0.396-0.17
			c-0.188-0.115-0.351-0.289-0.486-0.521c-0.139-0.229-0.197-0.506-0.176-0.83c0.029-0.328,0.131-0.595,0.303-0.802
			c0.171-0.205,0.358-0.348,0.562-0.428c0.108-0.062,0.248-0.1,0.417-0.113c0.17-0.011,0.502,0.002,0.996,0.041
			c0.487,0.038,0.815,0.076,0.984,0.113c0.17,0.04,0.303,0.099,0.401,0.176c0.188,0.111,0.35,0.281,0.483,0.51
			c0.139,0.231,0.199,0.511,0.182,0.839c-0.033,0.323-0.136,0.587-0.309,0.792c-0.167,0.209-0.353,0.355-0.558,0.44
			c-0.066,0.025-0.13,0.048-0.19,0.068c-0.062,0.018-0.14,0.031-0.232,0.039C55.747,78.019,55.417,78.008,54.93,77.97z
			 M54.979,77.345c0.419,0.033,0.704,0.04,0.855,0.021c0.15-0.015,0.274-0.06,0.372-0.133c0.093-0.06,0.171-0.141,0.234-0.244
			c0.072-0.101,0.114-0.225,0.126-0.373c0.012-0.149-0.011-0.281-0.066-0.396c-0.047-0.108-0.111-0.197-0.194-0.266
			c-0.086-0.088-0.201-0.153-0.348-0.195c-0.146-0.04-0.429-0.076-0.848-0.108c-0.42-0.033-0.707-0.041-0.861-0.024
			c-0.146,0.019-0.27,0.066-0.367,0.14c-0.093,0.056-0.172,0.133-0.239,0.232c-0.064,0.105-0.105,0.232-0.12,0.381
			c-0.008,0.147,0.013,0.276,0.061,0.387c0.051,0.112,0.117,0.205,0.199,0.278c0.086,0.088,0.199,0.151,0.342,0.189
			C54.274,77.275,54.559,77.313,54.979,77.345z"/>
		<path fill="#808285" d="M56.022,70.432c-0.475-0.147-0.788-0.259-0.94-0.336c-0.152-0.079-0.269-0.164-0.349-0.254
			c-0.158-0.154-0.278-0.359-0.359-0.616c-0.084-0.254-0.08-0.537,0.013-0.849c0.102-0.313,0.259-0.551,0.474-0.714
			c0.212-0.162,0.426-0.26,0.643-0.293c0.12-0.036,0.264-0.042,0.432-0.018c0.168,0.026,0.489,0.113,0.963,0.26
			c0.466,0.145,0.777,0.254,0.935,0.329c0.156,0.076,0.273,0.163,0.352,0.261c0.16,0.15,0.279,0.352,0.358,0.604
			c0.085,0.256,0.082,0.542-0.008,0.859c-0.104,0.308-0.263,0.543-0.477,0.704c-0.209,0.167-0.423,0.269-0.641,0.306
			c-0.071,0.01-0.138,0.018-0.201,0.024c-0.064,0.004-0.143,0-0.235-0.014C56.809,70.661,56.489,70.577,56.022,70.432z
			 M56.208,69.834c0.402,0.125,0.679,0.194,0.829,0.209c0.15,0.019,0.281,0.003,0.394-0.048c0.104-0.037,0.197-0.099,0.282-0.186
			c0.093-0.083,0.161-0.194,0.205-0.335c0.044-0.143,0.052-0.276,0.022-0.4c-0.021-0.116-0.064-0.217-0.13-0.302
			c-0.064-0.105-0.162-0.194-0.296-0.268c-0.133-0.071-0.401-0.169-0.803-0.293c-0.402-0.125-0.681-0.196-0.834-0.214
			c-0.147-0.014-0.277,0.004-0.39,0.055c-0.103,0.034-0.197,0.091-0.284,0.173c-0.087,0.088-0.154,0.203-0.202,0.345
			c-0.04,0.142-0.049,0.272-0.026,0.391c0.024,0.121,0.068,0.226,0.133,0.315c0.064,0.105,0.161,0.192,0.292,0.26
			C55.537,69.61,55.807,69.709,56.208,69.834z"/>
		<path fill="#808285" d="M56.98,62.151l0.312-0.543l3.179,1.818l1.001-1.751l0.529,0.303l-1.312,2.294L56.98,62.151z"/>
		<path fill="#808285" d="M65.468,55.698c0.234,0.333,0.345,0.665,0.332,0.997c-0.02,0.336-0.149,0.638-0.39,0.906
			c-0.224,0.236-0.466,0.383-0.728,0.44c-0.26,0.064-0.497,0.067-0.711,0.01c-0.067-0.021-0.132-0.042-0.191-0.062
			c-0.061-0.023-0.13-0.061-0.208-0.111c-0.147-0.094-0.402-0.304-0.765-0.63c-0.369-0.332-0.606-0.564-0.713-0.698
			c-0.104-0.135-0.174-0.26-0.209-0.375c-0.08-0.207-0.104-0.444-0.07-0.711c0.029-0.266,0.151-0.521,0.366-0.766
			c0.27-0.294,0.578-0.455,0.925-0.481c0.348-0.025,0.677,0.057,0.986,0.246l-0.444,0.495c-0.162-0.077-0.334-0.106-0.514-0.087
			c-0.18,0.027-0.338,0.114-0.476,0.261c-0.096,0.112-0.158,0.227-0.187,0.344c-0.029,0.12-0.032,0.233-0.012,0.342
			c0.015,0.122,0.066,0.241,0.156,0.358c0.093,0.125,0.296,0.328,0.609,0.609c0.312,0.282,0.534,0.46,0.665,0.538
			c0.129,0.08,0.254,0.12,0.377,0.121c0.11,0.009,0.222-0.008,0.334-0.051c0.119-0.036,0.229-0.108,0.327-0.219
			c0.236-0.262,0.268-0.588,0.095-0.978L65.468,55.698z"/>
		<path fill="#808285" d="M66.89,50.348l0.508-0.367l2.146,2.967l1.634-1.182l0.357,0.493l-2.142,1.55L66.89,50.348z"/>
		<path fill="#808285" d="M73.428,46.286l0.575-0.248l1.089,2.532c0.119,0.266,0.281,0.438,0.488,0.515
			c0.206,0.086,0.421,0.081,0.646-0.016s0.378-0.25,0.461-0.46c0.082-0.202,0.067-0.437-0.044-0.706l-1.089-2.532l0.575-0.248
			l1.116,2.594c0.171,0.416,0.182,0.799,0.034,1.149c-0.146,0.359-0.413,0.623-0.799,0.793c-0.383,0.16-0.755,0.171-1.118,0.032
			c-0.364-0.13-0.638-0.4-0.818-0.811L73.428,46.286z"/>
		<path fill="#808285" d="M81.257,43.577l1.577-0.289c0.401-0.069,0.721-0.02,0.959,0.147c0.24,0.168,0.392,0.421,0.453,0.76
			c0.035,0.172,0.025,0.345-0.029,0.518c-0.029,0.083-0.078,0.165-0.146,0.247c-0.067,0.085-0.153,0.168-0.261,0.247l0.002,0.012
			c0.233,0.019,0.423,0.108,0.57,0.268c0.141,0.167,0.23,0.36,0.271,0.579c0.062,0.364,0.005,0.671-0.172,0.922
			c-0.174,0.26-0.421,0.419-0.741,0.478l-1.716,0.313L81.257,43.577z M81.977,44.029l0.221,1.208l0.891-0.163
			c0.226-0.041,0.38-0.132,0.464-0.273c0.088-0.132,0.116-0.283,0.085-0.453s-0.111-0.304-0.241-0.402
			c-0.126-0.091-0.302-0.117-0.528-0.08L81.977,44.029z M82.3,45.801l0.231,1.266l0.951-0.174c0.229-0.046,0.385-0.141,0.469-0.286
			c0.083-0.143,0.109-0.299,0.079-0.469c-0.032-0.173-0.112-0.312-0.241-0.416c-0.128-0.102-0.308-0.134-0.538-0.096L82.3,45.801z"
			/>
		<path fill="#808285" d="M96.721,45.964l-1.608-0.325l-0.37,1.829l-0.614-0.124l0.847-4.187l0.614,0.124l-0.363,1.795l1.609,0.325
			l0.362-1.795l0.614,0.124l-0.847,4.187l-0.614-0.124L96.721,45.964z"/>
		<path fill="#808285" d="M102.945,45.383l0.569,0.261l-1.146,2.506c-0.118,0.266-0.137,0.502-0.055,0.707
			c0.074,0.21,0.223,0.367,0.444,0.468c0.223,0.102,0.439,0.113,0.651,0.033c0.204-0.074,0.369-0.242,0.493-0.506l1.147-2.506
			l0.569,0.261l-1.175,2.568c-0.194,0.405-0.471,0.67-0.83,0.796c-0.364,0.132-0.738,0.112-1.124-0.06
			c-0.375-0.176-0.633-0.445-0.773-0.808c-0.148-0.357-0.131-0.741,0.053-1.151L102.945,45.383z"/>
		<path fill="#808285" d="M108.283,51.977c0.093,0.422,0.319,0.772,0.679,1.051c0.433,0.319,0.77,0.327,1.011,0.021
			c0.196-0.251,0.169-0.512-0.081-0.784c-0.118-0.12-0.248-0.251-0.388-0.395c-0.247-0.263-0.38-0.535-0.399-0.815
			c-0.021-0.289,0.062-0.557,0.251-0.804c0.226-0.297,0.504-0.464,0.833-0.501c0.322-0.04,0.655,0.068,0.997,0.324
			c0.402,0.321,0.669,0.708,0.801,1.163l-0.601,0.212c-0.119-0.356-0.324-0.65-0.616-0.882c-0.154-0.117-0.312-0.175-0.475-0.173
			c-0.17,0.001-0.318,0.082-0.445,0.243c-0.075,0.098-0.105,0.215-0.092,0.351c0.012,0.137,0.088,0.283,0.227,0.438
			c0.078,0.084,0.188,0.196,0.33,0.335c0.275,0.279,0.416,0.566,0.423,0.864c0.008,0.293-0.08,0.561-0.264,0.802
			c-0.511,0.638-1.147,0.674-1.908,0.11c-0.487-0.371-0.789-0.844-0.904-1.42L108.283,51.977z"/>
		<path fill="#808285" d="M116.09,55.454l-0.74-0.858l0.434-0.375l1.893,2.191l-0.435,0.375l-0.741-0.859l-2.799,2.417l-0.409-0.474
			L116.09,55.454z"/>
		<path fill="#808285" d="M120.491,60.483l0.303,0.548l-3.206,1.77l0.975,1.766l-0.533,0.294l-1.277-2.314L120.491,60.483z"/>
		<path fill="#808285" d="M123.726,67.504l0.757,2.532l-0.583,0.174l-0.578-1.932l-1.171,0.351l0.493,1.649l-0.55,0.165
			l-0.493-1.649l-1.204,0.36l0.577,1.932l-0.583,0.175l-0.758-2.532L123.726,67.504z"/>
		<path fill="#808285" d="M125.406,75.089l0.116,1.612c0.024,0.344-0.049,0.631-0.22,0.862c-0.193,0.277-0.487,0.435-0.88,0.475
			c-0.579,0.034-0.991-0.203-1.237-0.712l-1.822,1.091l-0.054-0.742l1.76-0.985l-0.058-0.8l-1.821,0.131l-0.045-0.625
			L125.406,75.089z M123.584,75.849l0.068,0.947c0.021,0.234,0.104,0.405,0.249,0.513c0.135,0.106,0.295,0.153,0.48,0.14
			c0.223-0.02,0.379-0.101,0.469-0.242c0.08-0.112,0.113-0.269,0.099-0.469l-0.07-0.982L123.584,75.849z"/>
		<path fill="#808285" d="M122.192,82.748c-0.324,0.285-0.521,0.652-0.591,1.102c-0.07,0.533,0.087,0.832,0.471,0.896
			c0.314,0.05,0.53-0.1,0.646-0.451c0.047-0.161,0.1-0.338,0.157-0.53c0.111-0.343,0.285-0.591,0.521-0.745
			c0.243-0.158,0.518-0.214,0.825-0.169c0.369,0.054,0.65,0.216,0.842,0.487c0.19,0.263,0.257,0.606,0.199,1.029
			c-0.086,0.507-0.296,0.928-0.631,1.264l-0.476-0.423c0.254-0.276,0.412-0.599,0.474-0.967c0.028-0.191,0.002-0.357-0.078-0.5
			c-0.083-0.148-0.226-0.238-0.429-0.272c-0.122-0.018-0.238,0.012-0.351,0.089c-0.114,0.077-0.205,0.214-0.273,0.41
			c-0.036,0.11-0.08,0.26-0.134,0.451c-0.11,0.376-0.294,0.638-0.551,0.789c-0.253,0.148-0.529,0.201-0.829,0.156
			c-0.806-0.139-1.146-0.677-1.021-1.616c0.089-0.606,0.357-1.099,0.806-1.479L122.192,82.748z"/>
	</g>
	<g>
		<path fill="#808285" d="M66.222,104.145l0.481,0.454l-1.61,2.654l0.009,0.008l2.666-1.658l0.33,0.311l-1.499,2.759l0.009,0.009
			l2.557-1.764l0.481,0.454l-3.682,2.4l-0.381-0.36l1.538-2.783l-0.008-0.008l-2.69,1.699l-0.379-0.357L66.222,104.145z"/>
		<path fill="#808285" d="M71.108,111.044c0.255-0.428,0.438-0.705,0.549-0.836c0.112-0.128,0.223-0.221,0.329-0.277
			c0.187-0.117,0.415-0.184,0.685-0.203c0.266-0.021,0.54,0.05,0.821,0.215c0.28,0.172,0.474,0.382,0.581,0.629
			c0.107,0.244,0.151,0.475,0.133,0.694c0.007,0.125-0.022,0.267-0.085,0.424c-0.066,0.156-0.227,0.448-0.481,0.872
			c-0.251,0.42-0.432,0.697-0.541,0.832c-0.111,0.133-0.224,0.225-0.337,0.278c-0.184,0.12-0.408,0.188-0.672,0.204
			c-0.269,0.021-0.546-0.049-0.832-0.211c-0.274-0.174-0.465-0.383-0.57-0.629c-0.113-0.244-0.161-0.475-0.146-0.696
			c0.007-0.071,0.016-0.138,0.023-0.2c0.013-0.063,0.035-0.139,0.069-0.225C70.699,111.752,70.856,111.462,71.108,111.044z
			 M71.645,111.366c-0.217,0.359-0.351,0.611-0.4,0.756c-0.054,0.141-0.069,0.271-0.047,0.393c0.013,0.11,0.05,0.216,0.113,0.318
			c0.059,0.109,0.15,0.203,0.277,0.279c0.129,0.076,0.257,0.115,0.384,0.117c0.117,0.007,0.227-0.012,0.325-0.055
			c0.117-0.037,0.227-0.112,0.329-0.224c0.101-0.112,0.26-0.35,0.477-0.712c0.217-0.359,0.352-0.613,0.406-0.759
			c0.049-0.14,0.062-0.271,0.039-0.391c-0.008-0.108-0.043-0.214-0.102-0.318c-0.065-0.104-0.161-0.198-0.287-0.278
			c-0.13-0.072-0.253-0.112-0.374-0.117c-0.123-0.006-0.235,0.012-0.338,0.053c-0.117,0.039-0.224,0.112-0.321,0.223
			C72.021,110.767,71.86,111.005,71.645,111.366z"/>
		<path fill="#808285" d="M77.896,112.224l1.521,0.545c0.324,0.116,0.558,0.299,0.699,0.549c0.176,0.288,0.202,0.621,0.08,0.996
			c-0.202,0.543-0.587,0.825-1.15,0.846l0.263,2.107l-0.7-0.251l-0.191-2.008l-0.756-0.27l-0.614,1.719l-0.59-0.21L77.896,112.224z
			 M77.855,114.198l0.896,0.32c0.222,0.074,0.411,0.067,0.567-0.021c0.153-0.081,0.26-0.209,0.322-0.385
			c0.071-0.212,0.061-0.387-0.032-0.525c-0.07-0.119-0.2-0.212-0.39-0.279l-0.927-0.332L77.855,114.198z"/>
		<path fill="#808285" d="M83.962,114.009l0.619,0.094l-0.548,3.622l1.995,0.3l-0.091,0.604l-2.614-0.395L83.962,114.009z"/>
		<path fill="#808285" d="M89.93,114.588l1.445-0.061c0.56-0.021,0.989,0.202,1.29,0.667c0.106,0.156,0.177,0.322,0.21,0.496
			c0.028,0.174,0.052,0.477,0.07,0.908c0.02,0.459,0.017,0.779-0.008,0.962c-0.012,0.093-0.03,0.176-0.058,0.249
			c-0.029,0.072-0.065,0.146-0.107,0.225c-0.113,0.206-0.274,0.379-0.484,0.52c-0.207,0.148-0.467,0.229-0.776,0.243l-1.403,0.059
			L89.93,114.588z M90.709,118.221l0.749-0.031c0.352-0.016,0.602-0.149,0.751-0.405c0.066-0.094,0.105-0.213,0.119-0.354
			c0.011-0.14,0.009-0.399-0.008-0.78c-0.017-0.372-0.036-0.638-0.06-0.797c-0.029-0.16-0.089-0.287-0.178-0.385
			c-0.186-0.24-0.436-0.35-0.754-0.328l-0.749,0.031L90.709,118.221z"/>
		<path fill="#808285" d="M95.956,114.099l0.639-0.169l1.409,2.769l0.011-0.004l-0.005-3.141l0.439-0.117l1.554,2.729l0.011-0.002
			l-0.15-3.104l0.64-0.168l0.1,4.393l-0.508,0.135l-1.554-2.774l-0.01,0.003l0.026,3.18l-0.505,0.135L95.956,114.099z"/>
		<path fill="#808285" d="M103.576,111.564l0.564-0.271l1.847,3.852l-0.564,0.271L103.576,111.564z"/>
		<path fill="#808285" d="M107.312,109.546l1.184-0.834c0.46-0.319,0.941-0.365,1.445-0.137c0.174,0.073,0.321,0.174,0.444,0.302
			c0.118,0.131,0.302,0.373,0.551,0.726c0.265,0.376,0.437,0.646,0.515,0.814c0.041,0.084,0.069,0.164,0.086,0.24
			c0.015,0.076,0.025,0.158,0.032,0.246c0.017,0.234-0.025,0.468-0.126,0.698c-0.095,0.239-0.268,0.446-0.521,0.626l-1.147,0.809
			L107.312,109.546z M109.935,112.179l0.613-0.434c0.287-0.202,0.426-0.451,0.412-0.746c0.004-0.115-0.027-0.236-0.092-0.363
			c-0.066-0.123-0.21-0.34-0.431-0.652c-0.213-0.304-0.373-0.516-0.479-0.638c-0.111-0.118-0.23-0.193-0.357-0.226
			c-0.286-0.104-0.557-0.061-0.812,0.131l-0.613,0.432L109.935,112.179z"/>
		<path fill="#808285" d="M112.357,105.546l1.828-1.91l0.44,0.423l-1.395,1.456l0.882,0.846l1.19-1.244l0.414,0.397l-1.19,1.243
			l0.908,0.869l1.396-1.456l0.44,0.422l-1.829,1.909L112.357,105.546z"/>
	</g>
	<circle fill="#FFFFFF" cx="58.937" cy="97.441" r="1.703"/>
	<circle fill="#FFFFFF" cx="120.437" cy="97.441" r="1.703"/>
</g>
<g id="BLACK" display="none">
	<path display="inline" fill="#58595B" d="M89.205,36.665c-24.006,0-43.465,19.46-43.465,43.465s19.459,43.465,43.465,43.465
		c24.004,0,43.465-19.46,43.465-43.465S113.209,36.665,89.205,36.665z M89.205,108.005c-15.395,0-27.875-12.48-27.875-27.875
		c0-15.395,12.48-27.875,27.875-27.875s27.875,12.48,27.875,27.875C117.08,95.524,104.6,108.005,89.205,108.005z"/>
	<g display="inline">
		<path fill="#58595B" d="M100.297,93.706l-4.453,3.844H83.727l-4.336-3.844V80.464l-1.43-1.312l1.43-1.336V64.597l4.336-3.867
			h12.117l4.453,3.891v5.672H93.5v-2.766h-7.312v10.289l1.43,1.336l-1.43,1.312v10.289H93.5v-2.977h6.797V93.706z"/>
	</g>
	<g id="XE4klF_2_" display="inline">
		<g>
			<path fill-rule="evenodd" clip-rule="evenodd" fill="#969F3C" d="M95.484,84.884c0,0,2.194-2.628,1.395-4.313
				c-0.448,0.992-1.511,1.685-2.503,2.133c-3.864,1.054-4.44-5.354-1.68-6c1.214-0.173,1.815,0.265,2.4,0.72
				c-0.351-1.01-1.294-1.427-0.96-3.12c0.858-2.221,3.221-1.979,3.861-1.979c1.166-0.019,2.356,0.733,2.622,1.508
				c0.582,1.645-0.364,2.615-0.964,3.831c0.651-0.8,3.982-2.626,3.839,2.388c-0.148,1.319-1.171,2.823-2.469,3.125
				c-2.103,0.103-2.625-1.042-3.376-2.605c-0.349,2.268,1.334,4.313,1.334,4.313H95.484z"/>
		</g>
	</g>
	<g display="inline">
		<path fill="#E6E7E8" d="M55.992,82.214c0.404,0.035,0.729,0.165,0.975,0.389c0.245,0.231,0.393,0.525,0.442,0.882
			c0.036,0.323-0.007,0.603-0.132,0.84c-0.119,0.24-0.269,0.423-0.45,0.549c-0.06,0.039-0.117,0.074-0.172,0.107
			c-0.057,0.031-0.13,0.06-0.219,0.088c-0.166,0.051-0.491,0.111-0.975,0.178c-0.491,0.068-0.822,0.1-0.992,0.096
			c-0.171-0.008-0.312-0.035-0.423-0.082c-0.209-0.072-0.405-0.207-0.589-0.405c-0.185-0.194-0.301-0.452-0.35-0.773
			c-0.052-0.396,0.024-0.735,0.228-1.018c0.205-0.282,0.479-0.481,0.824-0.596l0.091,0.659c-0.163,0.075-0.296,0.187-0.397,0.336
			c-0.095,0.155-0.131,0.332-0.106,0.532c0.023,0.146,0.071,0.267,0.143,0.364c0.072,0.099,0.157,0.175,0.254,0.229
			c0.103,0.068,0.227,0.105,0.374,0.111c0.155,0.009,0.441-0.015,0.858-0.073s0.696-0.112,0.84-0.163
			c0.144-0.047,0.255-0.117,0.335-0.21c0.078-0.078,0.137-0.174,0.177-0.289c0.049-0.114,0.063-0.244,0.043-0.391
			c-0.048-0.349-0.277-0.583-0.688-0.703L55.992,82.214z"/>
		<path fill="#E6E7E8" d="M54.93,77.97c-0.495-0.038-0.826-0.078-0.992-0.12c-0.165-0.043-0.297-0.1-0.396-0.17
			c-0.188-0.115-0.351-0.289-0.486-0.521c-0.139-0.229-0.197-0.506-0.176-0.83c0.029-0.328,0.131-0.595,0.303-0.802
			c0.171-0.205,0.358-0.348,0.562-0.428c0.108-0.062,0.248-0.1,0.417-0.113c0.17-0.011,0.502,0.002,0.996,0.041
			c0.487,0.038,0.815,0.076,0.984,0.113c0.17,0.04,0.303,0.099,0.401,0.176c0.188,0.111,0.35,0.281,0.483,0.51
			c0.139,0.231,0.199,0.511,0.182,0.839c-0.033,0.323-0.136,0.587-0.309,0.792c-0.167,0.209-0.353,0.355-0.558,0.44
			c-0.066,0.025-0.13,0.048-0.19,0.068c-0.062,0.018-0.14,0.031-0.232,0.039C55.747,78.019,55.417,78.008,54.93,77.97z
			 M54.979,77.345c0.419,0.033,0.704,0.04,0.855,0.021c0.15-0.015,0.274-0.06,0.372-0.133c0.093-0.06,0.171-0.141,0.234-0.244
			c0.072-0.101,0.114-0.225,0.126-0.373c0.012-0.149-0.011-0.281-0.066-0.396c-0.047-0.108-0.111-0.197-0.194-0.266
			c-0.086-0.088-0.201-0.153-0.348-0.195c-0.146-0.04-0.429-0.076-0.848-0.108c-0.42-0.033-0.707-0.041-0.861-0.024
			c-0.146,0.019-0.27,0.066-0.367,0.14c-0.093,0.056-0.172,0.133-0.239,0.232c-0.064,0.105-0.105,0.232-0.12,0.381
			c-0.008,0.147,0.013,0.276,0.061,0.387c0.051,0.112,0.117,0.205,0.199,0.278c0.086,0.088,0.199,0.151,0.342,0.189
			C54.274,77.275,54.559,77.313,54.979,77.345z"/>
		<path fill="#E6E7E8" d="M56.022,70.432c-0.475-0.147-0.788-0.259-0.94-0.336c-0.152-0.079-0.269-0.164-0.349-0.254
			c-0.158-0.154-0.278-0.359-0.359-0.616c-0.084-0.254-0.08-0.537,0.013-0.849c0.102-0.313,0.259-0.551,0.474-0.714
			c0.212-0.162,0.426-0.26,0.643-0.293c0.12-0.036,0.264-0.042,0.432-0.018c0.168,0.026,0.489,0.113,0.963,0.26
			c0.466,0.145,0.777,0.254,0.935,0.329c0.156,0.076,0.273,0.163,0.352,0.261c0.16,0.15,0.279,0.352,0.358,0.604
			c0.085,0.256,0.082,0.542-0.008,0.859c-0.104,0.308-0.263,0.543-0.477,0.704c-0.209,0.167-0.423,0.269-0.641,0.306
			c-0.071,0.01-0.138,0.018-0.201,0.024c-0.064,0.004-0.143,0-0.235-0.014C56.809,70.661,56.489,70.577,56.022,70.432z
			 M56.208,69.834c0.402,0.125,0.679,0.194,0.829,0.209c0.15,0.019,0.281,0.003,0.394-0.048c0.104-0.037,0.197-0.099,0.282-0.186
			c0.093-0.083,0.161-0.194,0.205-0.335c0.044-0.143,0.052-0.276,0.022-0.4c-0.021-0.116-0.064-0.217-0.13-0.302
			c-0.064-0.105-0.162-0.194-0.296-0.268c-0.133-0.071-0.401-0.169-0.803-0.293c-0.402-0.125-0.681-0.196-0.834-0.214
			c-0.147-0.014-0.277,0.004-0.39,0.055c-0.103,0.034-0.197,0.091-0.284,0.173c-0.087,0.088-0.154,0.203-0.202,0.345
			c-0.04,0.142-0.049,0.272-0.026,0.391c0.024,0.121,0.068,0.226,0.133,0.315c0.064,0.105,0.161,0.192,0.292,0.26
			C55.537,69.61,55.807,69.709,56.208,69.834z"/>
		<path fill="#E6E7E8" d="M56.98,62.151l0.312-0.543l3.179,1.818l1.001-1.751l0.529,0.303l-1.312,2.294L56.98,62.151z"/>
		<path fill="#E6E7E8" d="M65.468,55.698c0.234,0.333,0.345,0.665,0.332,0.997c-0.02,0.336-0.149,0.638-0.39,0.906
			c-0.224,0.236-0.466,0.383-0.728,0.44c-0.26,0.064-0.497,0.067-0.711,0.01c-0.067-0.021-0.132-0.042-0.191-0.062
			c-0.061-0.023-0.13-0.061-0.208-0.111c-0.147-0.094-0.402-0.304-0.765-0.63c-0.369-0.332-0.606-0.564-0.713-0.698
			c-0.104-0.135-0.174-0.26-0.209-0.375c-0.08-0.207-0.104-0.444-0.07-0.711c0.029-0.266,0.151-0.521,0.366-0.766
			c0.27-0.294,0.578-0.455,0.925-0.481c0.348-0.025,0.677,0.057,0.986,0.246l-0.444,0.495c-0.162-0.077-0.334-0.106-0.514-0.087
			c-0.18,0.027-0.338,0.114-0.476,0.261c-0.096,0.112-0.158,0.227-0.187,0.344c-0.029,0.12-0.032,0.233-0.012,0.342
			c0.015,0.122,0.066,0.241,0.156,0.358c0.093,0.125,0.296,0.328,0.609,0.609c0.312,0.282,0.534,0.46,0.665,0.538
			c0.129,0.08,0.254,0.12,0.377,0.121c0.11,0.009,0.222-0.008,0.334-0.051c0.119-0.036,0.229-0.108,0.327-0.219
			c0.236-0.262,0.268-0.588,0.095-0.978L65.468,55.698z"/>
		<path fill="#E6E7E8" d="M66.89,50.348l0.508-0.367l2.146,2.967l1.634-1.182l0.357,0.493l-2.142,1.55L66.89,50.348z"/>
		<path fill="#E6E7E8" d="M73.428,46.286l0.575-0.248l1.089,2.532c0.119,0.266,0.281,0.438,0.488,0.515
			c0.206,0.086,0.421,0.081,0.646-0.016s0.378-0.25,0.461-0.46c0.082-0.202,0.067-0.437-0.044-0.706l-1.089-2.532l0.575-0.248
			l1.116,2.594c0.171,0.416,0.182,0.799,0.034,1.149c-0.146,0.359-0.413,0.623-0.799,0.793c-0.383,0.16-0.755,0.171-1.118,0.032
			c-0.364-0.13-0.638-0.4-0.818-0.811L73.428,46.286z"/>
		<path fill="#E6E7E8" d="M81.257,43.577l1.577-0.289c0.401-0.069,0.721-0.02,0.959,0.147c0.24,0.168,0.392,0.421,0.453,0.76
			c0.035,0.172,0.025,0.345-0.029,0.518c-0.029,0.083-0.078,0.165-0.146,0.247c-0.067,0.085-0.153,0.168-0.261,0.247l0.002,0.012
			c0.233,0.019,0.423,0.108,0.57,0.268c0.141,0.167,0.23,0.36,0.271,0.579c0.062,0.364,0.005,0.671-0.172,0.922
			c-0.174,0.26-0.421,0.419-0.741,0.478l-1.716,0.313L81.257,43.577z M81.977,44.029l0.221,1.208l0.891-0.163
			c0.226-0.041,0.38-0.132,0.464-0.273c0.088-0.132,0.116-0.283,0.085-0.453s-0.111-0.304-0.241-0.402
			c-0.126-0.091-0.302-0.117-0.528-0.08L81.977,44.029z M82.3,45.801l0.231,1.266l0.951-0.174c0.229-0.046,0.385-0.141,0.469-0.286
			c0.083-0.143,0.109-0.299,0.079-0.469c-0.032-0.173-0.112-0.312-0.241-0.416c-0.128-0.102-0.308-0.134-0.538-0.096L82.3,45.801z"
			/>
		<path fill="#E6E7E8" d="M96.721,45.964l-1.608-0.325l-0.37,1.829l-0.614-0.124l0.847-4.187l0.614,0.124l-0.363,1.795l1.609,0.325
			l0.362-1.795l0.614,0.124l-0.847,4.187l-0.614-0.124L96.721,45.964z"/>
		<path fill="#E6E7E8" d="M102.945,45.383l0.569,0.261l-1.146,2.506c-0.118,0.266-0.137,0.502-0.055,0.707
			c0.074,0.21,0.223,0.367,0.444,0.468c0.223,0.102,0.439,0.113,0.651,0.033c0.204-0.074,0.369-0.242,0.493-0.506l1.147-2.506
			l0.569,0.261l-1.175,2.568c-0.194,0.405-0.471,0.67-0.83,0.796c-0.364,0.132-0.738,0.112-1.124-0.06
			c-0.375-0.176-0.633-0.445-0.773-0.808c-0.148-0.357-0.131-0.741,0.053-1.151L102.945,45.383z"/>
		<path fill="#E6E7E8" d="M108.283,51.977c0.093,0.422,0.319,0.772,0.679,1.051c0.433,0.319,0.77,0.327,1.011,0.021
			c0.196-0.251,0.169-0.512-0.081-0.784c-0.118-0.12-0.248-0.251-0.388-0.395c-0.247-0.263-0.38-0.535-0.399-0.815
			c-0.021-0.289,0.062-0.557,0.251-0.804c0.226-0.297,0.504-0.464,0.833-0.501c0.322-0.04,0.655,0.068,0.997,0.324
			c0.402,0.321,0.669,0.708,0.801,1.163l-0.601,0.212c-0.119-0.356-0.324-0.65-0.616-0.882c-0.154-0.117-0.312-0.175-0.475-0.173
			c-0.17,0.001-0.318,0.082-0.445,0.243c-0.075,0.098-0.105,0.215-0.092,0.351c0.012,0.137,0.088,0.283,0.227,0.438
			c0.078,0.084,0.188,0.196,0.33,0.335c0.275,0.279,0.416,0.566,0.423,0.864c0.008,0.293-0.08,0.561-0.264,0.802
			c-0.511,0.638-1.147,0.674-1.908,0.11c-0.487-0.371-0.789-0.844-0.904-1.42L108.283,51.977z"/>
		<path fill="#E6E7E8" d="M116.09,55.454l-0.74-0.858l0.434-0.375l1.893,2.191l-0.435,0.375l-0.741-0.859l-2.799,2.417l-0.409-0.474
			L116.09,55.454z"/>
		<path fill="#E6E7E8" d="M120.491,60.483l0.303,0.548l-3.206,1.77l0.975,1.766l-0.533,0.294l-1.277-2.314L120.491,60.483z"/>
		<path fill="#E6E7E8" d="M123.726,67.504l0.757,2.532l-0.583,0.174l-0.578-1.932l-1.171,0.351l0.493,1.649l-0.55,0.165
			l-0.493-1.649l-1.204,0.36l0.577,1.932l-0.583,0.175l-0.758-2.532L123.726,67.504z"/>
		<path fill="#E6E7E8" d="M125.406,75.089l0.116,1.612c0.024,0.344-0.049,0.631-0.22,0.862c-0.193,0.277-0.487,0.435-0.88,0.475
			c-0.579,0.034-0.991-0.203-1.237-0.712l-1.822,1.091l-0.054-0.742l1.76-0.985l-0.058-0.8l-1.821,0.131l-0.045-0.625
			L125.406,75.089z M123.584,75.849l0.068,0.947c0.021,0.234,0.104,0.405,0.249,0.513c0.135,0.106,0.295,0.153,0.48,0.14
			c0.223-0.02,0.379-0.101,0.469-0.242c0.08-0.112,0.113-0.269,0.099-0.469l-0.07-0.982L123.584,75.849z"/>
		<path fill="#E6E7E8" d="M122.192,82.748c-0.324,0.285-0.521,0.652-0.591,1.102c-0.07,0.533,0.087,0.832,0.471,0.896
			c0.314,0.05,0.53-0.1,0.646-0.451c0.047-0.161,0.1-0.338,0.157-0.53c0.111-0.343,0.285-0.591,0.521-0.745
			c0.243-0.158,0.518-0.214,0.825-0.169c0.369,0.054,0.65,0.216,0.842,0.487c0.19,0.263,0.257,0.606,0.199,1.029
			c-0.086,0.507-0.296,0.928-0.631,1.264l-0.476-0.423c0.254-0.276,0.412-0.599,0.474-0.967c0.028-0.191,0.002-0.357-0.078-0.5
			c-0.083-0.148-0.226-0.238-0.429-0.272c-0.122-0.018-0.238,0.012-0.351,0.089c-0.114,0.077-0.205,0.214-0.273,0.41
			c-0.036,0.11-0.08,0.26-0.134,0.451c-0.11,0.376-0.294,0.638-0.551,0.789c-0.253,0.148-0.529,0.201-0.829,0.156
			c-0.806-0.139-1.146-0.677-1.021-1.616c0.089-0.606,0.357-1.099,0.806-1.479L122.192,82.748z"/>
	</g>
	<g display="inline">
		<path fill="#E6E7E8" d="M66.222,104.145l0.481,0.454l-1.61,2.654l0.009,0.008l2.666-1.658l0.33,0.311l-1.499,2.759l0.009,0.009
			l2.557-1.764l0.481,0.454l-3.682,2.4l-0.381-0.36l1.538-2.783l-0.008-0.008l-2.69,1.699l-0.379-0.357L66.222,104.145z"/>
		<path fill="#E6E7E8" d="M71.108,111.044c0.255-0.428,0.438-0.705,0.549-0.836c0.112-0.128,0.223-0.221,0.329-0.277
			c0.187-0.117,0.415-0.184,0.685-0.203c0.266-0.021,0.54,0.05,0.821,0.215c0.28,0.172,0.474,0.382,0.581,0.629
			c0.107,0.244,0.151,0.475,0.133,0.694c0.007,0.125-0.022,0.267-0.085,0.424c-0.066,0.156-0.227,0.448-0.481,0.872
			c-0.251,0.42-0.432,0.697-0.541,0.832c-0.111,0.133-0.224,0.225-0.337,0.278c-0.184,0.12-0.408,0.188-0.672,0.204
			c-0.269,0.021-0.546-0.049-0.832-0.211c-0.274-0.174-0.465-0.383-0.57-0.629c-0.113-0.244-0.161-0.475-0.146-0.696
			c0.007-0.071,0.016-0.138,0.023-0.2c0.013-0.063,0.035-0.139,0.069-0.225C70.699,111.752,70.856,111.462,71.108,111.044z
			 M71.645,111.366c-0.217,0.359-0.351,0.611-0.4,0.756c-0.054,0.141-0.069,0.271-0.047,0.393c0.013,0.11,0.05,0.216,0.113,0.318
			c0.059,0.109,0.15,0.203,0.277,0.279c0.129,0.076,0.257,0.115,0.384,0.117c0.117,0.007,0.227-0.012,0.325-0.055
			c0.117-0.037,0.227-0.112,0.329-0.224c0.101-0.112,0.26-0.35,0.477-0.712c0.217-0.359,0.352-0.613,0.406-0.759
			c0.049-0.14,0.062-0.271,0.039-0.391c-0.008-0.108-0.043-0.214-0.102-0.318c-0.065-0.104-0.161-0.198-0.287-0.278
			c-0.13-0.072-0.253-0.112-0.374-0.117c-0.123-0.006-0.235,0.012-0.338,0.053c-0.117,0.039-0.224,0.112-0.321,0.223
			C72.021,110.767,71.86,111.005,71.645,111.366z"/>
		<path fill="#E6E7E8" d="M77.896,112.224l1.521,0.545c0.324,0.116,0.558,0.299,0.699,0.549c0.176,0.288,0.202,0.621,0.08,0.996
			c-0.202,0.543-0.587,0.825-1.15,0.846l0.263,2.107l-0.7-0.251l-0.191-2.008l-0.756-0.27l-0.614,1.719l-0.59-0.21L77.896,112.224z
			 M77.855,114.198l0.896,0.32c0.222,0.074,0.411,0.067,0.567-0.021c0.153-0.081,0.26-0.209,0.322-0.385
			c0.071-0.212,0.061-0.387-0.032-0.525c-0.07-0.119-0.2-0.212-0.39-0.279l-0.927-0.332L77.855,114.198z"/>
		<path fill="#E6E7E8" d="M83.962,114.009l0.619,0.094l-0.548,3.622l1.995,0.3l-0.091,0.604l-2.614-0.395L83.962,114.009z"/>
		<path fill="#E6E7E8" d="M89.93,114.588l1.445-0.061c0.56-0.021,0.989,0.202,1.29,0.667c0.106,0.156,0.177,0.322,0.21,0.496
			c0.028,0.174,0.052,0.477,0.07,0.908c0.02,0.459,0.017,0.779-0.008,0.962c-0.012,0.093-0.03,0.176-0.058,0.249
			c-0.029,0.072-0.065,0.146-0.107,0.225c-0.113,0.206-0.274,0.379-0.484,0.52c-0.207,0.148-0.467,0.229-0.776,0.243l-1.403,0.059
			L89.93,114.588z M90.709,118.221l0.749-0.031c0.352-0.016,0.602-0.149,0.751-0.405c0.066-0.094,0.105-0.213,0.119-0.354
			c0.011-0.14,0.009-0.399-0.008-0.78c-0.017-0.372-0.036-0.638-0.06-0.797c-0.029-0.16-0.089-0.287-0.178-0.385
			c-0.186-0.24-0.436-0.35-0.754-0.328l-0.749,0.031L90.709,118.221z"/>
		<path fill="#E6E7E8" d="M95.956,114.099l0.639-0.169l1.409,2.769l0.011-0.004l-0.005-3.141l0.439-0.117l1.554,2.729l0.011-0.002
			l-0.15-3.104l0.64-0.168l0.1,4.393l-0.508,0.135l-1.554-2.774l-0.01,0.003l0.026,3.18l-0.505,0.135L95.956,114.099z"/>
		<path fill="#E6E7E8" d="M103.576,111.564l0.564-0.271l1.847,3.852l-0.564,0.271L103.576,111.564z"/>
		<path fill="#E6E7E8" d="M107.312,109.546l1.184-0.834c0.46-0.319,0.941-0.365,1.445-0.137c0.174,0.073,0.321,0.174,0.444,0.302
			c0.118,0.131,0.302,0.373,0.551,0.726c0.265,0.376,0.437,0.646,0.515,0.814c0.041,0.084,0.069,0.164,0.086,0.24
			c0.015,0.076,0.025,0.158,0.032,0.246c0.017,0.234-0.025,0.468-0.126,0.698c-0.095,0.239-0.268,0.446-0.521,0.626l-1.147,0.809
			L107.312,109.546z M109.935,112.179l0.613-0.434c0.287-0.202,0.426-0.451,0.412-0.746c0.004-0.115-0.027-0.236-0.092-0.363
			c-0.066-0.123-0.21-0.34-0.431-0.652c-0.213-0.304-0.373-0.516-0.479-0.638c-0.111-0.118-0.23-0.193-0.357-0.226
			c-0.286-0.104-0.557-0.061-0.812,0.131l-0.613,0.432L109.935,112.179z"/>
		<path fill="#E6E7E8" d="M112.357,105.546l1.828-1.91l0.44,0.423l-1.395,1.456l0.882,0.846l1.19-1.244l0.414,0.397l-1.19,1.243
			l0.908,0.869l1.396-1.456l0.44,0.422l-1.829,1.909L112.357,105.546z"/>
	</g>
	<circle display="inline" fill="#FFFFFF" cx="58.937" cy="97.441" r="1.703"/>
	<circle display="inline" fill="#FFFFFF" cx="120.437" cy="97.441" r="1.703"/>
</g>
<g id="NO_TEXT" display="none">
	<path display="inline" fill="#F1F2F2" d="M89.205,36.665c-24.006,0-43.465,19.46-43.465,43.465s19.459,43.465,43.465,43.465
		c24.004,0,43.465-19.46,43.465-43.465S113.209,36.665,89.205,36.665z M89.205,108.005c-15.395,0-27.875-12.48-27.875-27.875
		c0-15.395,12.48-27.875,27.875-27.875s27.875,12.48,27.875,27.875C117.08,95.524,104.6,108.005,89.205,108.005z"/>
	<g display="inline">
		<path fill="#F1F2F2" d="M100.297,93.706l-4.453,3.844H83.727l-4.336-3.844V80.464l-1.43-1.312l1.43-1.336V64.597l4.336-3.867
			h12.117l4.453,3.891v5.672H93.5v-2.766h-7.312v10.289l1.43,1.336l-1.43,1.312v10.289H93.5v-2.977h6.797V93.706z"/>
	</g>
	<g id="XE4klF_3_" display="inline">
		<g>
			<path fill-rule="evenodd" clip-rule="evenodd" fill="#969F3C" d="M95.484,84.884c0,0,2.194-2.628,1.395-4.313
				c-0.448,0.992-1.511,1.685-2.503,2.133c-3.864,1.054-4.44-5.354-1.68-6c1.214-0.173,1.815,0.265,2.4,0.72
				c-0.351-1.01-1.294-1.427-0.96-3.12c0.858-2.221,3.221-1.979,3.861-1.979c1.166-0.019,2.356,0.733,2.622,1.508
				c0.582,1.645-0.364,2.615-0.964,3.831c0.651-0.8,3.982-2.626,3.839,2.388c-0.148,1.319-1.171,2.823-2.469,3.125
				c-2.103,0.103-2.625-1.042-3.376-2.605c-0.349,2.268,1.334,4.313,1.334,4.313H95.484z"/>
		</g>
	</g>
</g>
</svg>
